<svg width="32" height="32" viewBox="0 0 32 32" fill="none" xmlns="http://www.w3.org/2000/svg">
<rect x="2" y="2" width="28" height="28" rx="14" stroke="white" stroke-opacity="0.15" stroke-width="2"/>
<g filter="url(#filter0_i_1916_5126)">
<path fill-rule="evenodd" clip-rule="evenodd" d="M3 16C3 8.82 8.82 3 16 3C23.18 3 29 8.82 29 16C29 23.18 23.18 29 16 29C8.82 29 3 23.18 3 16ZM10 16C10 12.6862 12.6862 10 16 10C19.3138 10 22 12.6862 22 16C22 19.3138 19.3138 22 16 22C12.6862 22 10 19.3138 10 16ZM16 13.2312C16.1223 13.2312 16.2396 13.2797 16.3262 13.3662L18.1723 15.2123C18.2177 15.2546 18.254 15.3055 18.2793 15.3621C18.3045 15.4187 18.318 15.4799 18.3191 15.5418C18.3202 15.6038 18.3088 15.6654 18.2856 15.7228C18.2624 15.7803 18.2279 15.8325 18.184 15.8763C18.1402 15.9202 18.088 15.9547 18.0305 15.9779C17.9731 16.0011 17.9115 16.0125 17.8495 16.0114C17.7876 16.0103 17.7264 15.9968 17.6698 15.9716C17.6132 15.9463 17.5623 15.91 17.52 15.8646L16.4615 14.8062V18.3077C16.4615 18.4301 16.4129 18.5475 16.3264 18.6341C16.2398 18.7206 16.1224 18.7692 16 18.7692C15.8776 18.7692 15.7602 18.7206 15.6736 18.6341C15.5871 18.5475 15.5385 18.4301 15.5385 18.3077V14.8062L14.48 15.8646C14.4377 15.91 14.3868 15.9463 14.3302 15.9716C14.2736 15.9968 14.2124 16.0103 14.1505 16.0114C14.0885 16.0125 14.0269 16.0011 13.9695 15.9779C13.912 15.9547 13.8598 15.9202 13.816 15.8763C13.7722 15.8325 13.7376 15.7803 13.7144 15.7228C13.6912 15.6654 13.6798 15.6038 13.6809 15.5418C13.682 15.4799 13.6955 15.4187 13.7207 15.3621C13.746 15.3055 13.7823 15.2546 13.8277 15.2123L15.6738 13.3662C15.7604 13.2797 15.8777 13.2312 16 13.2312Z" fill="url(#paint0_linear_1916_5126)"/>
</g>
<defs>
<filter id="filter0_i_1916_5126" x="3" y="3" width="26.75" height="26.75" filterUnits="userSpaceOnUse" color-interpolation-filters="sRGB">
<feFlood flood-opacity="0" result="BackgroundImageFix"/>
<feBlend mode="normal" in="SourceGraphic" in2="BackgroundImageFix" result="shape"/>
<feColorMatrix in="SourceAlpha" type="matrix" values="0 0 0 0 0 0 0 0 0 0 0 0 0 0 0 0 0 0 127 0" result="hardAlpha"/>
<feOffset dx="0.75" dy="0.75"/>
<feGaussianBlur stdDeviation="1.5"/>
<feComposite in2="hardAlpha" operator="arithmetic" k2="-1" k3="1"/>
<feColorMatrix type="matrix" values="0 0 0 0 1 0 0 0 0 1 0 0 0 0 1 0 0 0 0.04 0"/>
<feBlend mode="normal" in2="shape" result="effect1_innerShadow_1916_5126"/>
</filter>
<linearGradient id="paint0_linear_1916_5126" x1="16.001" y1="-2.6875" x2="16.001" y2="30.625" gradientUnits="userSpaceOnUse">
<stop stop-color="#FCFFDE"/>
<stop offset="0.484348" stop-color="#C4CC6E"/>
</linearGradient>
</defs>
</svg>
