<svg width="44" height="44" viewBox="0 0 32 32" fill="none"
    xmlns="http://www.w3.org/2000/svg">
    <rect x="2" y="2" width="28" height="28" rx="14" stroke="white" stroke-opacity="0.15" stroke-width="2"/>
    <g filter="url(#filter0_i_1912_4719)">
        <path fill-rule="evenodd" clip-rule="evenodd" d="M16 3C8.82 3 3 8.82 3 16C3 23.18 8.82 29 16 29C23.18 29 29 23.18 29 16C29 8.82 23.18 3 16 3ZM16.0002 21.4561C16.7612 21.8053 17.6079 22 18.5 22C21.8137 22 24.5 19.3137 24.5 16C24.5 12.6863 21.8137 10 18.5 10C17.6078 10 16.7611 10.1947 16 10.544C15.2389 10.1947 14.3922 10 13.5 10C10.1863 10 7.5 12.6863 7.5 16C7.5 19.3137 10.1863 22 13.5 22C14.3921 22 15.2387 21.8053 15.9997 21.4561C15.9998 21.4561 15.9999 21.4562 16 21.4562C16.0001 21.4562 16.0002 21.4561 16.0002 21.4561ZM14.9009 20.8014C13.4431 19.7068 12.5 17.9636 12.5 16.0003C12.5 14.0367 13.4433 12.2934 14.9014 11.1988C14.4575 11.0695 13.9874 11 13.5 11C10.7386 11 8.5 13.2386 8.5 16C8.5 18.7614 10.7386 21 13.5 21C13.9872 21 14.4571 20.9306 14.9009 20.8014ZM17.0991 20.8014C18.5569 19.7068 19.5 17.9636 19.5 16.0002C19.5 14.0366 18.5567 12.2934 17.0986 11.1988C17.5426 11.0695 18.0126 11 18.5 11C21.2614 11 23.5 13.2386 23.5 16C23.5 18.7614 21.2614 21 18.5 21C18.0127 21 17.5429 20.9306 17.0991 20.8014Z" fill="url(#paint0_linear_1912_4719)"/>
    </g>
    <defs>
        <filter id="filter0_i_1912_4719" x="3" y="3" width="26.75" height="26.75" filterUnits="userSpaceOnUse" color-interpolation-filters="sRGB">
            <feFlood flood-opacity="0" result="BackgroundImageFix"/>
            <feBlend mode="normal" in="SourceGraphic" in2="BackgroundImageFix" result="shape"/>
            <feColorMatrix in="SourceAlpha" type="matrix" values="0 0 0 0 0 0 0 0 0 0 0 0 0 0 0 0 0 0 127 0" result="hardAlpha"/>
            <feOffset dx="0.75" dy="0.75"/>
            <feGaussianBlur stdDeviation="1.5"/>
            <feComposite in2="hardAlpha" operator="arithmetic" k2="-1" k3="1"/>
            <feColorMatrix type="matrix" values="0 0 0 0 1 0 0 0 0 1 0 0 0 0 1 0 0 0 0.04 0"/>
            <feBlend mode="normal" in2="shape" result="effect1_innerShadow_1912_4719"/>
        </filter>
        <linearGradient id="paint0_linear_1912_4719" x1="16.001" y1="-2.6875" x2="16.001" y2="30.625" gradientUnits="userSpaceOnUse">
            <stop stop-color="white"/>
            <stop offset="0.667934" stop-color="#08FFE1"/>
        </linearGradient>
    </defs>
</svg>
