<svg width="44" height="44" viewBox="0 0 32 32" fill="none"
    xmlns="http://www.w3.org/2000/svg">
    <rect x="2" y="2" width="28" height="28" rx="14" stroke="white" stroke-opacity="0.15" stroke-width="2"/>
    <mask id="path-3-inside-1_1929_6753" fill="white">
        <path fill-rule="evenodd" clip-rule="evenodd" d="M3 16C3 8.82 8.82 3 16 3C23.18 3 29 8.82 29 16C29 23.18 23.18 29 16 29C8.82 29 3 23.18 3 16ZM10 14.0942C10 13.2557 10.9055 12.7299 11.6333 13.1451L15.6774 15.4562V14.0936C15.6774 13.2551 16.5829 12.7293 17.3108 13.1457L21.4497 15.5104C22.1834 15.9296 22.1834 16.9871 21.4497 17.4063L17.3108 19.7711C16.5829 20.1874 15.6774 19.6616 15.6774 18.8231V17.4605L11.6333 19.7716C10.9055 20.188 10 19.6622 10 18.8237V14.0942Z"/>
    </mask>
    <g filter="url(#filter0_i_1929_6753)">
        <path fill-rule="evenodd" clip-rule="evenodd" d="M3 16C3 8.82 8.82 3 16 3C23.18 3 29 8.82 29 16C29 23.18 23.18 29 16 29C8.82 29 3 23.18 3 16ZM10 14.0942C10 13.2557 10.9055 12.7299 11.6333 13.1451L15.6774 15.4562V14.0936C15.6774 13.2551 16.5829 12.7293 17.3108 13.1457L21.4497 15.5104C22.1834 15.9296 22.1834 16.9871 21.4497 17.4063L17.3108 19.7711C16.5829 20.1874 15.6774 19.6616 15.6774 18.8231V17.4605L11.6333 19.7716C10.9055 20.188 10 19.6622 10 18.8237V14.0942Z" fill="url(#paint0_linear_1929_6753)"/>
    </g>
    <path d="M11.6333 13.1451L11.7326 12.9714L11.7324 12.9714L11.6333 13.1451ZM15.6774 15.4562L15.5782 15.6299L15.8774 15.8009V15.4562H15.6774ZM17.3108 13.1457L17.2115 13.3193L17.2115 13.3193L17.3108 13.1457ZM21.4497 15.5104L21.549 15.3367L21.5489 15.3367L21.4497 15.5104ZM21.4497 17.4063L21.5489 17.58L21.549 17.58L21.4497 17.4063ZM17.3108 19.7711L17.2115 19.5974L17.2115 19.5974L17.3108 19.7711ZM15.6774 17.4605H15.8774V17.1158L15.5782 17.2868L15.6774 17.4605ZM11.6333 19.7716L11.5341 19.598L11.534 19.598L11.6333 19.7716ZM16 2.8C8.70954 2.8 2.8 8.70954 2.8 16H3.2C3.2 8.93046 8.93046 3.2 16 3.2V2.8ZM29.2 16C29.2 8.70954 23.2905 2.8 16 2.8V3.2C23.0695 3.2 28.8 8.93046 28.8 16H29.2ZM16 29.2C23.2905 29.2 29.2 23.2905 29.2 16H28.8C28.8 23.0695 23.0695 28.8 16 28.8V29.2ZM2.8 16C2.8 23.2905 8.70954 29.2 16 29.2V28.8C8.93046 28.8 3.2 23.0695 3.2 16H2.8ZM11.7324 12.9714C10.8712 12.4801 9.8 13.1023 9.8 14.0942H10.2C10.2 13.4092 10.9398 12.9797 11.5343 13.3188L11.7324 12.9714ZM15.7766 15.2826L11.7326 12.9714L11.5341 13.3187L15.5782 15.6299L15.7766 15.2826ZM15.4774 14.0936V15.4562H15.8774V14.0936H15.4774ZM17.4101 12.9721C16.5487 12.4794 15.4774 13.1017 15.4774 14.0936H15.8774C15.8774 13.4086 16.6171 12.9793 17.2115 13.3193L17.4101 12.9721ZM21.5489 15.3367L17.41 12.972L17.2115 13.3193L21.3505 15.684L21.5489 15.3367ZM21.549 17.58C22.417 17.084 22.417 15.8328 21.549 15.3367L21.3505 15.684C21.9498 16.0265 21.9498 16.8902 21.3505 17.2327L21.549 17.58ZM17.41 19.9447L21.5489 17.58L21.3505 17.2327L17.2115 19.5974L17.41 19.9447ZM15.4774 18.8231C15.4774 19.815 16.5487 20.4374 17.4101 19.9447L17.2115 19.5974C16.6171 19.9374 15.8774 19.5082 15.8774 18.8231H15.4774ZM15.4774 17.4605V18.8231H15.8774V17.4605H15.4774ZM11.7326 19.9453L15.7766 17.6341L15.5782 17.2868L11.5341 19.598L11.7326 19.9453ZM9.8 18.8237C9.8 19.8156 10.8713 20.4379 11.7326 19.9452L11.534 19.598C10.9397 19.938 10.2 19.5087 10.2 18.8237H9.8ZM9.8 14.0942V18.8237H10.2V14.0942H9.8Z" fill="white" fill-opacity="0.2" mask="url(#path-3-inside-1_1929_6753)"/>
    <defs>
        <filter id="filter0_i_1929_6753" x="3" y="3" width="26.75" height="26.75" filterUnits="userSpaceOnUse" color-interpolation-filters="sRGB">
            <feFlood flood-opacity="0" result="BackgroundImageFix"/>
            <feBlend mode="normal" in="SourceGraphic" in2="BackgroundImageFix" result="shape"/>
            <feColorMatrix in="SourceAlpha" type="matrix" values="0 0 0 0 0 0 0 0 0 0 0 0 0 0 0 0 0 0 127 0" result="hardAlpha"/>
            <feOffset dx="0.75" dy="0.75"/>
            <feGaussianBlur stdDeviation="1.5"/>
            <feComposite in2="hardAlpha" operator="arithmetic" k2="-1" k3="1"/>
            <feColorMatrix type="matrix" values="0 0 0 0 1 0 0 0 0 1 0 0 0 0 1 0 0 0 0.04 0"/>
            <feBlend mode="normal" in2="shape" result="effect1_innerShadow_1929_6753"/>
        </filter>
        <linearGradient id="paint0_linear_1929_6753" x1="16.001" y1="-2.6875" x2="16.001" y2="30.625" gradientUnits="userSpaceOnUse">
            <stop stop-color="white"/>
            <stop offset="0.667934" stop-color="#FF0000"/>
        </linearGradient>
    </defs>
</svg>
