<svg width="44" height="44" viewBox="0 0 32 32" fill="none"
    xmlns="http://www.w3.org/2000/svg">
    <rect x="2" y="2" width="28" height="28" rx="14" stroke="white" stroke-opacity="0.15" stroke-width="2"/>
    <g filter="url(#filter0_i_1916_5067)">
        <path fill-rule="evenodd" clip-rule="evenodd" d="M3 16C3 8.82 8.82 3 16 3C23.18 3 29 8.82 29 16C29 23.18 23.18 29 16 29C8.82 29 3 23.18 3 16ZM10.5858 10.5858C10.2107 10.9609 10 11.4696 10 12V13.5C10 14.0304 10.2107 14.5391 10.5858 14.9142C10.9609 15.2893 11.4696 15.5 12 15.5H13.5C14.0304 15.5 14.5391 15.2893 14.9142 14.9142C15.2893 14.5391 15.5 14.0304 15.5 13.5V12C15.5 11.4696 15.2893 10.9609 14.9142 10.5858C14.5391 10.2107 14.0304 10 13.5 10H12C11.4696 10 10.9609 10.2107 10.5858 10.5858ZM17.0858 10.5858C16.7107 10.9609 16.5 11.4696 16.5 12V13.5C16.5 14.0304 16.7107 14.5391 17.0858 14.9142C17.4609 15.2893 17.9696 15.5 18.5 15.5H20C20.5304 15.5 21.0391 15.2893 21.4142 14.9142C21.7893 14.5391 22 14.0304 22 13.5V12C22 11.4696 21.7893 10.9609 21.4142 10.5858C21.0391 10.2107 20.5304 10 20 10H18.5C17.9696 10 17.4609 10.2107 17.0858 10.5858ZM10.5858 17.0858C10.2107 17.4609 10 17.9696 10 18.5V20C10 20.5304 10.2107 21.0391 10.5858 21.4142C10.9609 21.7893 11.4696 22 12 22H13.5C14.0304 22 14.5391 21.7893 14.9142 21.4142C15.2893 21.0391 15.5 20.5304 15.5 20V18.5C15.5 17.9696 15.2893 17.4609 14.9142 17.0858C14.5391 16.7107 14.0304 16.5 13.5 16.5H12C11.4696 16.5 10.9609 16.7107 10.5858 17.0858ZM17.0858 17.0858C16.7107 17.4609 16.5 17.9696 16.5 18.5V20C16.5 20.5304 16.7107 21.0391 17.0858 21.4142C17.4609 21.7893 17.9696 22 18.5 22H20C20.5304 22 21.0391 21.7893 21.4142 21.4142C21.7893 21.0391 22 20.5304 22 20V18.5C22 17.9696 21.7893 17.4609 21.4142 17.0858C21.0391 16.7107 20.5304 16.5 20 16.5H18.5C17.9696 16.5 17.4609 16.7107 17.0858 17.0858Z" fill="url(#paint0_linear_1916_5067)"/>
    </g>
    <defs>
        <filter id="filter0_i_1916_5067" x="3" y="3" width="26.75" height="26.75" filterUnits="userSpaceOnUse" color-interpolation-filters="sRGB">
            <feFlood flood-opacity="0" result="BackgroundImageFix"/>
            <feBlend mode="normal" in="SourceGraphic" in2="BackgroundImageFix" result="shape"/>
            <feColorMatrix in="SourceAlpha" type="matrix" values="0 0 0 0 0 0 0 0 0 0 0 0 0 0 0 0 0 0 127 0" result="hardAlpha"/>
            <feOffset dx="0.75" dy="0.75"/>
            <feGaussianBlur stdDeviation="1.5"/>
            <feComposite in2="hardAlpha" operator="arithmetic" k2="-1" k3="1"/>
            <feColorMatrix type="matrix" values="0 0 0 0 1 0 0 0 0 1 0 0 0 0 1 0 0 0 0.04 0"/>
            <feBlend mode="normal" in2="shape" result="effect1_innerShadow_1916_5067"/>
        </filter>
        <linearGradient id="paint0_linear_1916_5067" x1="16.001" y1="-2.6875" x2="16.001" y2="30.625" gradientUnits="userSpaceOnUse">
            <stop stop-color="white"/>
            <stop offset="0.667934" stop-color="#FF08C9"/>
        </linearGradient>
    </defs>
</svg>
