<svg width="44" height="44" viewBox="0 0 32 32" fill="none"
    xmlns="http://www.w3.org/2000/svg">
    <rect x="2" y="2" width="28" height="28" rx="14" stroke="white" stroke-opacity="0.15" stroke-width="2"/>
    <mask id="path-3-inside-1_1935_6816" fill="white">
        <path fill-rule="evenodd" clip-rule="evenodd" d="M3 16C3 8.82 8.82 3 16 3C23.18 3 29 8.82 29 16C29 23.18 23.18 29 16 29C8.82 29 3 23.18 3 16ZM18.1464 10.1464C18.0527 10.2402 18 10.3674 18 10.5C18 10.6326 18.0527 10.7598 18.1464 10.8536C18.2402 10.9473 18.3674 11 18.5 11H20.2933L17.6467 13.6467C17.5975 13.6924 17.5581 13.7476 17.5308 13.809C17.5035 13.8703 17.4888 13.9365 17.4876 14.0037C17.4864 14.0708 17.4988 14.1375 17.5239 14.1997C17.5491 14.262 17.5865 14.3185 17.634 14.366C17.6815 14.4135 17.738 14.4509 17.8003 14.4761C17.8625 14.5012 17.9292 14.5136 17.9963 14.5124C18.0635 14.5112 18.1297 14.4965 18.191 14.4692C18.2524 14.4419 18.3076 14.4025 18.3533 14.3533L21 11.7067V13.5C21 13.6326 21.0527 13.7598 21.1464 13.8536C21.2402 13.9473 21.3674 14 21.5 14C21.6326 14 21.7598 13.9473 21.8536 13.8536C21.9473 13.7598 22 13.6326 22 13.5V10.5C22 10.3674 21.9473 10.2402 21.8536 10.1464C21.7598 10.0527 21.6326 10 21.5 10H18.5C18.3674 10 18.2402 10.0527 18.1464 10.1464ZM10.1464 10.1464C10.0527 10.2402 10 10.3674 10 10.5V13.5C10 13.6326 10.0527 13.7598 10.1464 13.8536C10.2402 13.9473 10.3674 14 10.5 14C10.6326 14 10.7598 13.9473 10.8536 13.8536C10.9473 13.7598 11 13.6326 11 13.5V11.7067L13.6467 14.3533C13.7415 14.4417 13.8668 14.4897 13.9963 14.4875C14.1259 14.4852 14.2495 14.4327 14.3411 14.3411C14.4327 14.2495 14.4852 14.1259 14.4875 13.9963C14.4897 13.8668 14.4417 13.7415 14.3533 13.6467L11.7067 11H13.5C13.6326 11 13.7598 10.9473 13.8536 10.8536C13.9473 10.7598 14 10.6326 14 10.5C14 10.3674 13.9473 10.2402 13.8536 10.1464C13.7598 10.0527 13.6326 10 13.5 10H10.5C10.3674 10 10.2402 10.0527 10.1464 10.1464ZM17.5308 18.191C17.5581 18.2524 17.5975 18.3076 17.6467 18.3533L20.2933 21H18.5C18.3674 21 18.2402 21.0527 18.1464 21.1464C18.0527 21.2402 18 21.3674 18 21.5C18 21.6326 18.0527 21.7598 18.1464 21.8536C18.2402 21.9473 18.3674 22 18.5 22H21.5C21.6326 22 21.7598 21.9473 21.8536 21.8536C21.9473 21.7598 22 21.6326 22 21.5V18.5C22 18.3674 21.9473 18.2402 21.8536 18.1464C21.7598 18.0527 21.6326 18 21.5 18C21.3674 18 21.2402 18.0527 21.1464 18.1464C21.0527 18.2402 21 18.3674 21 18.5V20.2933L18.3533 17.6467C18.3076 17.5975 18.2524 17.5581 18.191 17.5308C18.1297 17.5035 18.0635 17.4888 17.9963 17.4876C17.9292 17.4864 17.8625 17.4988 17.8003 17.5239C17.738 17.5491 17.6815 17.5865 17.634 17.634C17.5865 17.6815 17.5491 17.738 17.5239 17.8003C17.4988 17.8625 17.4864 17.9292 17.4876 17.9963C17.4888 18.0635 17.5035 18.1297 17.5308 18.191ZM14.4996 18C14.4996 17.8675 14.447 17.7404 14.3533 17.6467C14.2596 17.553 14.1325 17.5004 14 17.5004C13.8675 17.5004 13.7404 17.553 13.6467 17.6467L11 20.2933V18.5C11 18.3674 10.9473 18.2402 10.8536 18.1464C10.7598 18.0527 10.6326 18 10.5 18C10.3674 18 10.2402 18.0527 10.1464 18.1464C10.0527 18.2402 10 18.3674 10 18.5V21.5C10 21.6326 10.0527 21.7598 10.1464 21.8536C10.2402 21.9473 10.3674 22 10.5 22H13.5C13.6326 22 13.7598 21.9473 13.8536 21.8536C13.9473 21.7598 14 21.6326 14 21.5C14 21.3674 13.9473 21.2402 13.8536 21.1464C13.7598 21.0527 13.6326 21 13.5 21H11.7067L14.3533 18.3533C14.447 18.2596 14.4996 18.1325 14.4996 18Z"/>
    </mask>
    <g filter="url(#filter0_i_1935_6816)">
        <path fill-rule="evenodd" clip-rule="evenodd" d="M3 16C3 8.82 8.82 3 16 3C23.18 3 29 8.82 29 16C29 23.18 23.18 29 16 29C8.82 29 3 23.18 3 16ZM18.1464 10.1464C18.0527 10.2402 18 10.3674 18 10.5C18 10.6326 18.0527 10.7598 18.1464 10.8536C18.2402 10.9473 18.3674 11 18.5 11H20.2933L17.6467 13.6467C17.5975 13.6924 17.5581 13.7476 17.5308 13.809C17.5035 13.8703 17.4888 13.9365 17.4876 14.0037C17.4864 14.0708 17.4988 14.1375 17.5239 14.1997C17.5491 14.262 17.5865 14.3185 17.634 14.366C17.6815 14.4135 17.738 14.4509 17.8003 14.4761C17.8625 14.5012 17.9292 14.5136 17.9963 14.5124C18.0635 14.5112 18.1297 14.4965 18.191 14.4692C18.2524 14.4419 18.3076 14.4025 18.3533 14.3533L21 11.7067V13.5C21 13.6326 21.0527 13.7598 21.1464 13.8536C21.2402 13.9473 21.3674 14 21.5 14C21.6326 14 21.7598 13.9473 21.8536 13.8536C21.9473 13.7598 22 13.6326 22 13.5V10.5C22 10.3674 21.9473 10.2402 21.8536 10.1464C21.7598 10.0527 21.6326 10 21.5 10H18.5C18.3674 10 18.2402 10.0527 18.1464 10.1464ZM10.1464 10.1464C10.0527 10.2402 10 10.3674 10 10.5V13.5C10 13.6326 10.0527 13.7598 10.1464 13.8536C10.2402 13.9473 10.3674 14 10.5 14C10.6326 14 10.7598 13.9473 10.8536 13.8536C10.9473 13.7598 11 13.6326 11 13.5V11.7067L13.6467 14.3533C13.7415 14.4417 13.8668 14.4897 13.9963 14.4875C14.1259 14.4852 14.2495 14.4327 14.3411 14.3411C14.4327 14.2495 14.4852 14.1259 14.4875 13.9963C14.4897 13.8668 14.4417 13.7415 14.3533 13.6467L11.7067 11H13.5C13.6326 11 13.7598 10.9473 13.8536 10.8536C13.9473 10.7598 14 10.6326 14 10.5C14 10.3674 13.9473 10.2402 13.8536 10.1464C13.7598 10.0527 13.6326 10 13.5 10H10.5C10.3674 10 10.2402 10.0527 10.1464 10.1464ZM17.5308 18.191C17.5581 18.2524 17.5975 18.3076 17.6467 18.3533L20.2933 21H18.5C18.3674 21 18.2402 21.0527 18.1464 21.1464C18.0527 21.2402 18 21.3674 18 21.5C18 21.6326 18.0527 21.7598 18.1464 21.8536C18.2402 21.9473 18.3674 22 18.5 22H21.5C21.6326 22 21.7598 21.9473 21.8536 21.8536C21.9473 21.7598 22 21.6326 22 21.5V18.5C22 18.3674 21.9473 18.2402 21.8536 18.1464C21.7598 18.0527 21.6326 18 21.5 18C21.3674 18 21.2402 18.0527 21.1464 18.1464C21.0527 18.2402 21 18.3674 21 18.5V20.2933L18.3533 17.6467C18.3076 17.5975 18.2524 17.5581 18.191 17.5308C18.1297 17.5035 18.0635 17.4888 17.9963 17.4876C17.9292 17.4864 17.8625 17.4988 17.8003 17.5239C17.738 17.5491 17.6815 17.5865 17.634 17.634C17.5865 17.6815 17.5491 17.738 17.5239 17.8003C17.4988 17.8625 17.4864 17.9292 17.4876 17.9963C17.4888 18.0635 17.5035 18.1297 17.5308 18.191ZM14.4996 18C14.4996 17.8675 14.447 17.7404 14.3533 17.6467C14.2596 17.553 14.1325 17.5004 14 17.5004C13.8675 17.5004 13.7404 17.553 13.6467 17.6467L11 20.2933V18.5C11 18.3674 10.9473 18.2402 10.8536 18.1464C10.7598 18.0527 10.6326 18 10.5 18C10.3674 18 10.2402 18.0527 10.1464 18.1464C10.0527 18.2402 10 18.3674 10 18.5V21.5C10 21.6326 10.0527 21.7598 10.1464 21.8536C10.2402 21.9473 10.3674 22 10.5 22H13.5C13.6326 22 13.7598 21.9473 13.8536 21.8536C13.9473 21.7598 14 21.6326 14 21.5C14 21.3674 13.9473 21.2402 13.8536 21.1464C13.7598 21.0527 13.6326 21 13.5 21H11.7067L14.3533 18.3533C14.447 18.2596 14.4996 18.1325 14.4996 18Z" fill="url(#paint0_linear_1935_6816)"/>
    </g>
    <path d="M18.1464 10.8536L18.2879 10.7121L18.2879 10.7121L18.1464 10.8536ZM20.2933 11L20.4348 11.1414L20.7762 10.8H20.2933V11ZM17.6467 13.6467L17.7831 13.7931L17.7881 13.7881L17.6467 13.6467ZM17.5308 13.809L17.7135 13.8904L17.7135 13.8904L17.5308 13.809ZM17.4876 14.0037L17.2876 14.0001L17.2876 14.0001L17.4876 14.0037ZM17.634 14.366L17.7754 14.2246L17.7754 14.2246L17.634 14.366ZM18.191 14.4692L18.2724 14.6519L18.2724 14.6519L18.191 14.4692ZM18.3533 14.3533L18.2118 14.2118L18.207 14.217L18.3533 14.3533ZM21 11.7067H21.2V11.2238L20.8586 11.5652L21 11.7067ZM21.1464 13.8536L21.005 13.995L21.005 13.995L21.1464 13.8536ZM21.8536 13.8536L21.7121 13.7121L21.7121 13.7121L21.8536 13.8536ZM21.8536 10.1464L21.7121 10.2879L21.7121 10.2879L21.8536 10.1464ZM10.1464 13.8536L10.2879 13.7121L10.2879 13.7121L10.1464 13.8536ZM10.8536 13.8536L10.7121 13.7121L10.7121 13.7121L10.8536 13.8536ZM11 11.7067L11.1414 11.5652L10.8 11.2238V11.7067H11ZM13.6467 14.3533L13.5052 14.4948L13.5103 14.4997L13.6467 14.3533ZM13.9963 14.4875L13.9999 14.6874L13.9999 14.6874L13.9963 14.4875ZM14.3411 14.3411L14.1997 14.1997L14.1997 14.1997L14.3411 14.3411ZM14.4875 13.9963L14.6874 13.9999L14.6874 13.9999L14.4875 13.9963ZM14.3533 13.6467L14.4997 13.5102L14.4948 13.5052L14.3533 13.6467ZM11.7067 11V10.8H11.2238L11.5652 11.1414L11.7067 11ZM13.8536 10.8536L13.7121 10.7121L13.7121 10.7121L13.8536 10.8536ZM13.8536 10.1464L13.7121 10.2879L13.7121 10.2879L13.8536 10.1464ZM17.6467 18.3533L17.7882 18.2118L17.783 18.207L17.6467 18.3533ZM17.5308 18.191L17.7135 18.1096L17.7135 18.1096L17.5308 18.191ZM20.2933 21V21.2H20.7762L20.4348 20.8586L20.2933 21ZM18.1464 21.1464L18.005 21.005L18.005 21.005L18.1464 21.1464ZM18.1464 21.8536L18.2879 21.7121L18.2879 21.7121L18.1464 21.8536ZM21.8536 21.8536L21.7121 21.7121L21.7121 21.7121L21.8536 21.8536ZM21.8536 18.1464L21.7121 18.2879L21.7121 18.2879L21.8536 18.1464ZM21.1464 18.1464L21.005 18.005L21.005 18.005L21.1464 18.1464ZM21 20.2933L20.8586 20.4348L21.2 20.7762V20.2933H21ZM18.3533 17.6467L18.2069 17.7831L18.2119 17.7881L18.3533 17.6467ZM18.191 17.5308L18.1096 17.7135L18.1096 17.7135L18.191 17.5308ZM17.634 17.634L17.7754 17.7754L17.7754 17.7754L17.634 17.634ZM14.3533 17.6467L14.4948 17.5053L14.4947 17.5052L14.3533 17.6467ZM13.6467 17.6467L13.5053 17.5052L13.5052 17.5052L13.6467 17.6467ZM11 20.2933H10.8V20.7762L11.1414 20.4348L11 20.2933ZM10.8536 18.1464L10.7121 18.2879L10.7121 18.2879L10.8536 18.1464ZM10.1464 21.8536L10.2879 21.7121L10.2879 21.7121L10.1464 21.8536ZM13.8536 21.8536L13.7121 21.7121L13.7121 21.7121L13.8536 21.8536ZM13.8536 21.1464L13.995 21.005L13.995 21.005L13.8536 21.1464ZM11.7067 21L11.5652 20.8586L11.2238 21.2H11.7067V21ZM14.3533 18.3533L14.4948 18.4948L14.4948 18.4947L14.3533 18.3533ZM16 2.8C8.70954 2.8 2.8 8.70954 2.8 16H3.2C3.2 8.93046 8.93046 3.2 16 3.2V2.8ZM29.2 16C29.2 8.70954 23.2905 2.8 16 2.8V3.2C23.0695 3.2 28.8 8.93046 28.8 16H29.2ZM16 29.2C23.2905 29.2 29.2 23.2905 29.2 16H28.8C28.8 23.0695 23.0695 28.8 16 28.8V29.2ZM2.8 16C2.8 23.2905 8.70954 29.2 16 29.2V28.8C8.93046 28.8 3.2 23.0695 3.2 16H2.8ZM18.2 10.5C18.2 10.4204 18.2316 10.3441 18.2879 10.2879L18.005 10.005C17.8738 10.1363 17.8 10.3143 17.8 10.5H18.2ZM18.2879 10.7121C18.2316 10.6559 18.2 10.5796 18.2 10.5H17.8C17.8 10.6857 17.8738 10.8637 18.005 10.995L18.2879 10.7121ZM18.5 10.8C18.4204 10.8 18.3441 10.7684 18.2879 10.7121L18.005 10.995C18.1363 11.1263 18.3143 11.2 18.5 11.2V10.8ZM20.2933 10.8H18.5V11.2H20.2933V10.8ZM17.7881 13.7881L20.4348 11.1414L20.1519 10.8586L17.5052 13.5052L17.7881 13.7881ZM17.7135 13.8904C17.7299 13.8536 17.7535 13.8205 17.783 13.793L17.5103 13.5003C17.4415 13.5644 17.3864 13.6417 17.3481 13.7276L17.7135 13.8904ZM17.6876 14.0072C17.6883 13.9669 17.6971 13.9272 17.7135 13.8904L17.3481 13.7276C17.3099 13.8134 17.2893 13.9061 17.2876 14.0001L17.6876 14.0072ZM17.7094 14.1248C17.6943 14.0875 17.6869 14.0475 17.6876 14.0072L17.2876 14.0001C17.286 14.0941 17.3033 14.1875 17.3385 14.2746L17.7094 14.1248ZM17.7754 14.2246C17.7469 14.1961 17.7245 14.1622 17.7094 14.1248L17.3385 14.2746C17.3737 14.3618 17.4261 14.441 17.4926 14.5074L17.7754 14.2246ZM17.8752 14.2906C17.8378 14.2755 17.8039 14.2531 17.7754 14.2246L17.4926 14.5074C17.559 14.5739 17.6382 14.6263 17.7254 14.6615L17.8752 14.2906ZM17.9928 14.3124C17.9525 14.3131 17.9125 14.3057 17.8752 14.2906L17.7254 14.6615C17.8125 14.6967 17.9059 14.714 17.9999 14.7124L17.9928 14.3124ZM18.1096 14.2865C18.0728 14.3029 18.0331 14.3117 17.9928 14.3124L17.9999 14.7124C18.0939 14.7107 18.1866 14.6901 18.2724 14.6519L18.1096 14.2865ZM18.207 14.217C18.1795 14.2465 18.1464 14.2701 18.1096 14.2865L18.2724 14.6519C18.3583 14.6136 18.4356 14.5585 18.4997 14.4897L18.207 14.217ZM20.8586 11.5652L18.2119 14.2119L18.4948 14.4948L21.1414 11.8481L20.8586 11.5652ZM21.2 13.5V11.7067H20.8V13.5H21.2ZM21.2879 13.7121C21.2316 13.6559 21.2 13.5796 21.2 13.5H20.8C20.8 13.6857 20.8738 13.8637 21.005 13.995L21.2879 13.7121ZM21.5 13.8C21.4204 13.8 21.3441 13.7684 21.2879 13.7121L21.005 13.995C21.1363 14.1263 21.3143 14.2 21.5 14.2V13.8ZM21.7121 13.7121C21.6559 13.7684 21.5796 13.8 21.5 13.8V14.2C21.6857 14.2 21.8637 14.1263 21.995 13.995L21.7121 13.7121ZM21.8 13.5C21.8 13.5796 21.7684 13.6559 21.7121 13.7121L21.995 13.995C22.1263 13.8637 22.2 13.6857 22.2 13.5H21.8ZM21.8 10.5V13.5H22.2V10.5H21.8ZM21.7121 10.2879C21.7684 10.3441 21.8 10.4204 21.8 10.5H22.2C22.2 10.3143 22.1263 10.1363 21.995 10.005L21.7121 10.2879ZM21.5 10.2C21.5796 10.2 21.6559 10.2316 21.7121 10.2879L21.995 10.005C21.8637 9.87375 21.6857 9.8 21.5 9.8V10.2ZM18.5 10.2H21.5V9.8H18.5V10.2ZM18.2879 10.2879C18.3441 10.2316 18.4204 10.2 18.5 10.2V9.8C18.3143 9.8 18.1363 9.87375 18.005 10.005L18.2879 10.2879ZM10.2 10.5C10.2 10.4204 10.2316 10.3441 10.2879 10.2879L10.005 10.005C9.87375 10.1363 9.8 10.3143 9.8 10.5H10.2ZM10.2 13.5V10.5H9.8V13.5H10.2ZM10.2879 13.7121C10.2316 13.6559 10.2 13.5796 10.2 13.5H9.8C9.8 13.6857 9.87375 13.8637 10.005 13.995L10.2879 13.7121ZM10.5 13.8C10.4204 13.8 10.3441 13.7684 10.2879 13.7121L10.005 13.995C10.1363 14.1263 10.3143 14.2 10.5 14.2V13.8ZM10.7121 13.7121C10.6559 13.7684 10.5796 13.8 10.5 13.8V14.2C10.6857 14.2 10.8637 14.1263 10.995 13.995L10.7121 13.7121ZM10.8 13.5C10.8 13.5796 10.7684 13.6559 10.7121 13.7121L10.995 13.995C11.1263 13.8637 11.2 13.6857 11.2 13.5H10.8ZM10.8 11.7067V13.5H11.2V11.7067H10.8ZM13.7881 14.2119L11.1414 11.5652L10.8586 11.8481L13.5052 14.4948L13.7881 14.2119ZM13.9928 14.2875C13.9151 14.2889 13.8399 14.26 13.783 14.207L13.5103 14.4997C13.643 14.6233 13.8185 14.6906 13.9999 14.6874L13.9928 14.2875ZM14.1997 14.1997C14.1447 14.2546 14.0705 14.2861 13.9928 14.2875L13.9999 14.6874C14.1812 14.6842 14.3543 14.6108 14.4825 14.4825L14.1997 14.1997ZM14.2875 13.9928C14.2861 14.0705 14.2546 14.1447 14.1997 14.1997L14.4825 14.4825C14.6108 14.3543 14.6842 14.1812 14.6874 13.9999L14.2875 13.9928ZM14.207 13.783C14.26 13.8399 14.2889 13.9151 14.2875 13.9928L14.6874 13.9999C14.6906 13.8185 14.6233 13.643 14.4997 13.5103L14.207 13.783ZM11.5652 11.1414L14.2119 13.7881L14.4948 13.5052L11.8481 10.8586L11.5652 11.1414ZM13.5 10.8H11.7067V11.2H13.5V10.8ZM13.7121 10.7121C13.6559 10.7684 13.5796 10.8 13.5 10.8V11.2C13.6857 11.2 13.8637 11.1263 13.995 10.995L13.7121 10.7121ZM13.8 10.5C13.8 10.5796 13.7684 10.6559 13.7121 10.7121L13.995 10.995C14.1263 10.8637 14.2 10.6857 14.2 10.5H13.8ZM13.7121 10.2879C13.7684 10.3441 13.8 10.4204 13.8 10.5H14.2C14.2 10.3143 14.1263 10.1363 13.995 10.005L13.7121 10.2879ZM13.5 10.2C13.5796 10.2 13.6559 10.2316 13.7121 10.2879L13.995 10.005C13.8637 9.87375 13.6857 9.8 13.5 9.8V10.2ZM10.5 10.2H13.5V9.8H10.5V10.2ZM10.2879 10.2879C10.3441 10.2316 10.4204 10.2 10.5 10.2V9.8C10.3143 9.8 10.1363 9.87375 10.005 10.005L10.2879 10.2879ZM17.783 18.207C17.7535 18.1795 17.7299 18.1464 17.7135 18.1096L17.3481 18.2724C17.3864 18.3583 17.4415 18.4356 17.5103 18.4997L17.783 18.207ZM20.4348 20.8586L17.7881 18.2119L17.5052 18.4948L20.1519 21.1414L20.4348 20.8586ZM18.5 21.2H20.2933V20.8H18.5V21.2ZM18.2879 21.2879C18.3441 21.2316 18.4204 21.2 18.5 21.2V20.8C18.3143 20.8 18.1363 20.8738 18.005 21.005L18.2879 21.2879ZM18.2 21.5C18.2 21.4204 18.2316 21.3441 18.2879 21.2879L18.005 21.005C17.8738 21.1363 17.8 21.3143 17.8 21.5H18.2ZM18.2879 21.7121C18.2316 21.6559 18.2 21.5796 18.2 21.5H17.8C17.8 21.6857 17.8738 21.8637 18.005 21.995L18.2879 21.7121ZM18.5 21.8C18.4204 21.8 18.3441 21.7684 18.2879 21.7121L18.005 21.995C18.1363 22.1263 18.3143 22.2 18.5 22.2V21.8ZM21.5 21.8H18.5V22.2H21.5V21.8ZM21.7121 21.7121C21.6559 21.7684 21.5796 21.8 21.5 21.8V22.2C21.6856 22.2 21.8637 22.1263 21.995 21.995L21.7121 21.7121ZM21.8 21.5C21.8 21.5796 21.7684 21.6559 21.7121 21.7121L21.995 21.995C22.1263 21.8637 22.2 21.6856 22.2 21.5H21.8ZM21.8 18.5V21.5H22.2V18.5H21.8ZM21.7121 18.2879C21.7684 18.3441 21.8 18.4204 21.8 18.5H22.2C22.2 18.3143 22.1263 18.1363 21.995 18.005L21.7121 18.2879ZM21.5 18.2C21.5796 18.2 21.6559 18.2316 21.7121 18.2879L21.995 18.005C21.8637 17.8738 21.6857 17.8 21.5 17.8V18.2ZM21.2879 18.2879C21.3441 18.2316 21.4204 18.2 21.5 18.2V17.8C21.3143 17.8 21.1363 17.8738 21.005 18.005L21.2879 18.2879ZM21.2 18.5C21.2 18.4204 21.2316 18.3441 21.2879 18.2879L21.005 18.005C20.8738 18.1363 20.8 18.3143 20.8 18.5H21.2ZM21.2 20.2933V18.5H20.8V20.2933H21.2ZM18.2119 17.7881L20.8586 20.4348L21.1414 20.1519L18.4948 17.5052L18.2119 17.7881ZM18.1096 17.7135C18.1464 17.7299 18.1795 17.7535 18.207 17.783L18.4997 17.5103C18.4356 17.4415 18.3583 17.3864 18.2724 17.3481L18.1096 17.7135ZM17.9928 17.6876C18.0331 17.6883 18.0728 17.6971 18.1096 17.7135L18.2724 17.3481C18.1866 17.3099 18.0939 17.2893 17.9999 17.2876L17.9928 17.6876ZM17.8752 17.7094C17.9125 17.6943 17.9525 17.6869 17.9928 17.6876L17.9999 17.2876C17.9059 17.286 17.8125 17.3033 17.7254 17.3385L17.8752 17.7094ZM17.7754 17.7754C17.8039 17.7469 17.8378 17.7245 17.8752 17.7094L17.7254 17.3385C17.6382 17.3737 17.559 17.4261 17.4926 17.4926L17.7754 17.7754ZM17.7094 17.8752C17.7245 17.8378 17.7469 17.8039 17.7754 17.7754L17.4926 17.4926C17.4261 17.559 17.3737 17.6382 17.3385 17.7254L17.7094 17.8752ZM17.6876 17.9928C17.6869 17.9525 17.6943 17.9125 17.7094 17.8752L17.3385 17.7254C17.3033 17.8125 17.286 17.9059 17.2876 17.9999L17.6876 17.9928ZM17.7135 18.1096C17.6971 18.0728 17.6883 18.0331 17.6876 17.9928L17.2876 17.9999C17.2893 18.0939 17.3099 18.1866 17.3481 18.2724L17.7135 18.1096ZM14.2118 17.788C14.268 17.8443 14.2996 17.9205 14.2996 18H14.6996C14.6996 17.8145 14.6259 17.6366 14.4948 17.5053L14.2118 17.788ZM14 17.7004C14.0795 17.7004 14.1558 17.732 14.212 17.7882L14.4947 17.5052C14.3634 17.3741 14.1855 17.3004 14 17.3004V17.7004ZM13.788 17.7882C13.8443 17.732 13.9205 17.7004 14 17.7004V17.3004C13.8145 17.3004 13.6366 17.3741 13.5053 17.5052L13.788 17.7882ZM11.1414 20.4348L13.7881 17.7881L13.5052 17.5052L10.8586 20.1519L11.1414 20.4348ZM10.8 18.5V20.2933H11.2V18.5H10.8ZM10.7121 18.2879C10.7684 18.3441 10.8 18.4204 10.8 18.5H11.2C11.2 18.3143 11.1263 18.1363 10.995 18.005L10.7121 18.2879ZM10.5 18.2C10.5796 18.2 10.6559 18.2316 10.7121 18.2879L10.995 18.005C10.8637 17.8738 10.6857 17.8 10.5 17.8V18.2ZM10.2879 18.2879C10.3441 18.2316 10.4204 18.2 10.5 18.2V17.8C10.3143 17.8 10.1363 17.8738 10.005 18.005L10.2879 18.2879ZM10.2 18.5C10.2 18.4204 10.2316 18.3441 10.2879 18.2879L10.005 18.005C9.87375 18.1363 9.8 18.3143 9.8 18.5H10.2ZM10.2 21.5V18.5H9.8V21.5H10.2ZM10.2879 21.7121C10.2316 21.6559 10.2 21.5796 10.2 21.5H9.8C9.8 21.6857 9.87375 21.8637 10.005 21.995L10.2879 21.7121ZM10.5 21.8C10.4204 21.8 10.3441 21.7684 10.2879 21.7121L10.005 21.995C10.1363 22.1263 10.3143 22.2 10.5 22.2V21.8ZM13.5 21.8H10.5V22.2H13.5V21.8ZM13.7121 21.7121C13.6559 21.7684 13.5796 21.8 13.5 21.8V22.2C13.6857 22.2 13.8637 22.1263 13.995 21.995L13.7121 21.7121ZM13.8 21.5C13.8 21.5796 13.7684 21.6559 13.7121 21.7121L13.995 21.995C14.1263 21.8637 14.2 21.6857 14.2 21.5H13.8ZM13.7121 21.2879C13.7684 21.3441 13.8 21.4204 13.8 21.5H14.2C14.2 21.3143 14.1263 21.1363 13.995 21.005L13.7121 21.2879ZM13.5 21.2C13.5796 21.2 13.6559 21.2316 13.7121 21.2879L13.995 21.005C13.8637 20.8738 13.6857 20.8 13.5 20.8V21.2ZM11.7067 21.2H13.5V20.8H11.7067V21.2ZM14.2119 18.2119L11.5652 20.8586L11.8481 21.1414L14.4948 18.4948L14.2119 18.2119ZM14.2996 18C14.2996 18.0795 14.268 18.1558 14.2118 18.212L14.4948 18.4947C14.6259 18.3634 14.6996 18.1855 14.6996 18H14.2996Z" fill="white" fill-opacity="0.2" mask="url(#path-3-inside-1_1935_6816)"/>
    <defs>
        <filter id="filter0_i_1935_6816" x="3" y="3" width="26.75" height="26.75" filterUnits="userSpaceOnUse" color-interpolation-filters="sRGB">
            <feFlood flood-opacity="0" result="BackgroundImageFix"/>
            <feBlend mode="normal" in="SourceGraphic" in2="BackgroundImageFix" result="shape"/>
            <feColorMatrix in="SourceAlpha" type="matrix" values="0 0 0 0 0 0 0 0 0 0 0 0 0 0 0 0 0 0 127 0" result="hardAlpha"/>
            <feOffset dx="0.75" dy="0.75"/>
            <feGaussianBlur stdDeviation="1.5"/>
            <feComposite in2="hardAlpha" operator="arithmetic" k2="-1" k3="1"/>
            <feColorMatrix type="matrix" values="0 0 0 0 1 0 0 0 0 1 0 0 0 0 1 0 0 0 0.04 0"/>
            <feBlend mode="normal" in2="shape" result="effect1_innerShadow_1935_6816"/>
        </filter>
        <linearGradient id="paint0_linear_1935_6816" x1="16.001" y1="-2.6875" x2="16.001" y2="30.625" gradientUnits="userSpaceOnUse">
            <stop stop-color="white"/>
            <stop offset="0.667934" stop-color="#0029FF"/>
        </linearGradient>
    </defs>
</svg>
