<svg width="16" height="16" viewBox="0 0 16 16" fill="none" xmlns="http://www.w3.org/2000/svg">
<g clip-path="url(#clip0_1855_2068)">
<path fill-rule="evenodd" clip-rule="evenodd" d="M7.99928 0.266693C3.72943 0.266693 0.266659 3.72902 0.266659 8.00028C0.266659 11.4166 2.48229 14.3153 5.5553 15.3384C5.94222 15.4091 6.08321 15.1704 6.08321 14.9653C6.08321 14.7815 6.07657 14.2954 6.07277 13.6502C3.92171 14.1174 3.46785 12.6134 3.46785 12.6134C3.11607 11.7199 2.60905 11.4821 2.60905 11.4821C1.9069 11.0026 2.66222 11.0121 2.66222 11.0121C3.43842 11.0667 3.8467 11.8092 3.8467 11.8092C4.5365 12.9907 5.6569 12.6494 6.09746 12.4514C6.16773 11.952 6.36759 11.6111 6.58834 11.4179C4.87119 11.2223 3.06575 10.5592 3.06575 7.5958C3.06575 6.75123 3.36721 6.06143 3.86189 5.5207C3.78214 5.3251 3.51676 4.53892 3.93785 3.47406C3.93785 3.47406 4.58682 3.26612 6.06423 4.26641C6.68092 4.09502 7.34271 4.00957 8.00023 4.00625C8.65727 4.00957 9.31859 4.09502 9.93624 4.26641C11.4127 3.26612 12.0607 3.47406 12.0607 3.47406C12.4828 4.53892 12.2174 5.3251 12.1381 5.5207C12.6337 6.06143 12.9328 6.75123 12.9328 7.5958C12.9328 10.5667 11.1245 11.2205 9.40215 11.4118C9.67939 11.6506 9.92674 12.1225 9.92674 12.8441C9.92674 13.8776 9.91724 14.7117 9.91724 14.9653C9.91724 15.1722 10.0568 15.4129 10.449 15.3374C13.5196 14.3125 15.7333 11.416 15.7333 8.00028C15.7333 3.72902 12.2705 0.266693 7.99928 0.266693Z" fill="#979797"/>
</g>
<defs>
<clipPath id="clip0_1855_2068">
<rect width="16" height="16" fill="white"/>
</clipPath>
</defs>
</svg>
