<svg width="44" height="44" viewBox="0 0 32 32" fill="none"
    xmlns="http://www.w3.org/2000/svg">
    <g filter="url(#filter0_i_1899_4462)">
        <path fill-rule="evenodd" clip-rule="evenodd" d="M18.615 4.10841C18.7614 4.20154 18.8763 4.34803 18.9414 4.52451C19.0065 4.70099 19.018 4.89728 18.974 5.08209L16.982 13.4281H24.25C24.3962 13.4281 24.5392 13.4769 24.6614 13.5685C24.7836 13.6602 24.8797 13.7906 24.9379 13.9438C24.9962 14.097 25.0139 14.2663 24.9891 14.4309C24.9642 14.5956 24.8978 14.7483 24.798 14.8703L14.298 27.727C14.1836 27.8674 14.0314 27.9598 13.8656 27.9896C13.6998 28.0194 13.5301 27.9848 13.3836 27.8913C13.2371 27.7978 13.1222 27.6509 13.0574 27.474C12.9925 27.2972 12.9815 27.1005 13.026 26.9156L15.018 18.5708H7.74996C7.60379 18.5708 7.46082 18.5219 7.33861 18.4303C7.2164 18.3387 7.12028 18.2083 7.06206 18.0551C7.00384 17.9018 6.98607 17.7325 7.01092 17.5679C7.03578 17.4033 7.10217 17.2506 7.20195 17.1285L17.702 4.27183C17.8164 4.132 17.9684 4.03994 18.1339 4.01033C18.2993 3.98071 18.4687 4.01524 18.615 4.10841Z" fill="url(#paint0_linear_1899_4462)"/>
    </g>
    <defs>
        <filter id="filter0_i_1899_4462" x="7" y="4" width="18.75" height="24.75" filterUnits="userSpaceOnUse" color-interpolation-filters="sRGB">
            <feFlood flood-opacity="0" result="BackgroundImageFix"/>
            <feBlend mode="normal" in="SourceGraphic" in2="BackgroundImageFix" result="shape"/>
            <feColorMatrix in="SourceAlpha" type="matrix" values="0 0 0 0 0 0 0 0 0 0 0 0 0 0 0 0 0 0 127 0" result="hardAlpha"/>
            <feOffset dx="0.75" dy="0.75"/>
            <feGaussianBlur stdDeviation="1.5"/>
            <feComposite in2="hardAlpha" operator="arithmetic" k2="-1" k3="1"/>
            <feColorMatrix type="matrix" values="0 0 0 0 1 0 0 0 0 1 0 0 0 0 1 0 0 0 0.04 0"/>
            <feBlend mode="normal" in2="shape" result="effect1_innerShadow_1899_4462"/>
        </filter>
        <linearGradient id="paint0_linear_1899_4462" x1="16.0007" y1="-1.25" x2="16.0007" y2="29.5" gradientUnits="userSpaceOnUse">
            <stop stop-color="white"/>
            <stop offset="0.667934" stop-color="#FF8D08"/>
        </linearGradient>
    </defs>
</svg>
