<svg width="44" height="44" viewBox="0 0 32 32" fill="none"
    xmlns="http://www.w3.org/2000/svg">
    <rect x="2" y="2" width="28" height="28" rx="14" stroke="white" stroke-opacity="0.15" stroke-width="2"/>
    <g filter="url(#filter0_i_1914_4756)">
        <path fill-rule="evenodd" clip-rule="evenodd" d="M3 16C3 8.82 8.82 3 16 3C23.18 3 29 8.82 29 16C29 23.18 23.18 29 16 29C8.82 29 3 23.18 3 16ZM16.4661 10.126C16.3854 10.0453 16.276 10 16.1619 10C16.0478 10 15.9384 10.0453 15.8577 10.126C15.7771 10.2067 15.7317 10.3161 15.7317 10.4302V11.7206C15.7317 11.8347 15.7771 11.9441 15.8577 12.0248C15.9384 12.1055 16.0478 12.1508 16.1619 12.1508C16.276 12.1508 16.3854 12.1055 16.4661 12.0248C16.5467 11.9441 16.5921 11.8347 16.5921 11.7206V10.4302C16.5921 10.3161 16.5467 10.2067 16.4661 10.126ZM12.8158 11.3861C12.7019 11.3861 12.5925 11.4313 12.5119 11.5119C12.4719 11.5518 12.4402 11.5992 12.4185 11.6515C12.3969 11.7037 12.3858 11.7596 12.3858 11.8161C12.3858 11.8726 12.3969 11.9286 12.4185 11.9808C12.4402 12.033 12.4719 12.0804 12.5119 12.1204L13.4244 13.0323C13.5055 13.1107 13.6141 13.1541 13.7269 13.1532C13.8397 13.1523 13.9476 13.1071 14.0274 13.0274C14.1072 12.9477 14.1525 12.8398 14.1535 12.727C14.1545 12.6142 14.1112 12.5055 14.0329 12.4244L13.1198 11.5119C13.0392 11.4313 12.9298 11.3861 12.8158 11.3861ZM19.9377 11.8158C19.9377 11.7019 19.8925 11.5925 19.8119 11.5119C19.772 11.4719 19.7246 11.4402 19.6724 11.4185C19.6202 11.3969 19.5642 11.3858 19.5077 11.3858C19.4512 11.3858 19.3952 11.3969 19.343 11.4185C19.2908 11.4402 19.2434 11.4719 19.2034 11.5119L18.2915 12.4244C18.2131 12.5055 18.1697 12.6141 18.1706 12.7269C18.1715 12.8397 18.2167 12.9476 18.2964 13.0274C18.3761 13.1072 18.484 13.1525 18.5968 13.1535C18.7096 13.1545 18.8183 13.1112 18.8994 13.0329L19.8119 12.1198C19.8925 12.0392 19.9377 11.9298 19.9377 11.8158ZM16.1666 14.1038C16.0822 14.0718 15.9899 14.0671 15.9027 14.0905V14.0899C15.8155 14.1134 15.7379 14.1637 15.6808 14.2337C15.6238 14.3037 15.5903 14.3898 15.5849 14.48L15.2586 19.9114C15.2534 19.9964 15.2736 20.0811 15.3165 20.1546C15.3595 20.2281 15.4233 20.2872 15.4999 20.3244C15.5765 20.3617 15.6624 20.3753 15.7468 20.3637C15.8311 20.352 15.9101 20.3156 15.9738 20.259L16.892 19.4446L17.4908 21.6808C17.5203 21.7911 17.5924 21.8851 17.6913 21.9423C17.7901 21.9994 17.9076 22.0149 18.0179 21.9854C18.1282 21.9559 18.2222 21.8837 18.2793 21.7849C18.3365 21.6861 18.352 21.5686 18.3224 21.4583L17.7231 19.2215L18.9258 19.4681C19.0092 19.4852 19.0958 19.4773 19.1747 19.4452C19.2535 19.4131 19.3211 19.3584 19.3688 19.2879C19.4165 19.2174 19.4422 19.1343 19.4427 19.0492C19.4432 18.964 19.4184 18.8807 19.3715 18.8097L16.373 14.2689C16.3232 14.1936 16.251 14.1358 16.1666 14.1038ZM11.126 14.8577C11.0453 14.9384 11 15.0478 11 15.1619C11 15.276 11.0453 15.3854 11.126 15.4661C11.2067 15.5467 11.3161 15.5921 11.4302 15.5921H12.7206C12.8347 15.5921 12.9441 15.5467 13.0248 15.4661C13.1055 15.3854 13.1508 15.276 13.1508 15.1619C13.1508 15.0478 13.1055 14.9384 13.0248 14.8577C12.9441 14.7771 12.8347 14.7317 12.7206 14.7317H11.4302C11.3161 14.7317 11.2067 14.7771 11.126 14.8577ZM19.299 14.8577C19.2183 14.9384 19.173 15.0478 19.173 15.1619C19.173 15.276 19.2183 15.3854 19.299 15.4661C19.3797 15.5467 19.4891 15.5921 19.6032 15.5921H20.8937C21.0077 15.5921 21.1171 15.5467 21.1978 15.4661C21.2785 15.3854 21.3238 15.276 21.3238 15.1619C21.3238 15.0478 21.2785 14.9384 21.1978 14.8577C21.1171 14.7771 21.0077 14.7317 20.8937 14.7317H19.6032C19.4891 14.7317 19.3797 14.7771 19.299 14.8577ZM14.1262 17.4305C14.1046 17.3783 14.0729 17.3309 14.0329 17.2909H14.0323C13.9517 17.2103 13.8423 17.1651 13.7284 17.1651C13.6144 17.1651 13.505 17.2103 13.4244 17.2909L12.5119 18.204C12.4708 18.2437 12.4381 18.2912 12.4155 18.3437C12.393 18.3962 12.3812 18.4526 12.3807 18.5097C12.3802 18.5668 12.3911 18.6235 12.4128 18.6763C12.4345 18.7292 12.4664 18.7772 12.5068 18.8176C12.5472 18.8579 12.5953 18.8899 12.6481 18.9115C12.701 18.9331 12.7577 18.9439 12.8148 18.9434C12.8719 18.9429 12.9283 18.931 12.9808 18.9084C13.0333 18.8858 13.0807 18.853 13.1204 18.8119L14.0329 17.8994C14.0729 17.8595 14.1046 17.8121 14.1262 17.7598C14.1479 17.7076 14.159 17.6517 14.159 17.5952C14.159 17.5387 14.1479 17.4827 14.1262 17.4305Z" fill="url(#paint0_linear_1914_4756)"/>
    </g>
    <defs>
        <filter id="filter0_i_1914_4756" x="3" y="3" width="26.75" height="26.75" filterUnits="userSpaceOnUse" color-interpolation-filters="sRGB">
            <feFlood flood-opacity="0" result="BackgroundImageFix"/>
            <feBlend mode="normal" in="SourceGraphic" in2="BackgroundImageFix" result="shape"/>
            <feColorMatrix in="SourceAlpha" type="matrix" values="0 0 0 0 0 0 0 0 0 0 0 0 0 0 0 0 0 0 127 0" result="hardAlpha"/>
            <feOffset dx="0.75" dy="0.75"/>
            <feGaussianBlur stdDeviation="1.5"/>
            <feComposite in2="hardAlpha" operator="arithmetic" k2="-1" k3="1"/>
            <feColorMatrix type="matrix" values="0 0 0 0 1 0 0 0 0 1 0 0 0 0 1 0 0 0 0.04 0"/>
            <feBlend mode="normal" in2="shape" result="effect1_innerShadow_1914_4756"/>
        </filter>
        <linearGradient id="paint0_linear_1914_4756" x1="16.001" y1="-2.6875" x2="16.001" y2="30.625" gradientUnits="userSpaceOnUse">
            <stop stop-color="white" stop-opacity="0.5"/>
            <stop offset="0.667934" stop-color="white"/>
        </linearGradient>
    </defs>
</svg>
