<svg width="44" height="44" viewBox="0 0 32 32" fill="none"
    xmlns="http://www.w3.org/2000/svg">
    <rect x="2" y="2" width="28" height="28" rx="14" stroke="white" stroke-opacity="0.15" stroke-width="2"/>
    <g filter="url(#filter0_i_1907_4629)">
        <path fill-rule="evenodd" clip-rule="evenodd" d="M3 16C3 8.82 8.82 3 16 3C23.18 3 29 8.82 29 16C29 23.18 23.18 29 16 29C8.82 29 3 23.18 3 16ZM16.2896 10.1352C16.2031 10.0486 16.0857 10 15.9632 10C15.8408 10 15.7234 10.0486 15.6369 10.1352C15.5503 10.2217 15.5017 10.3391 15.5017 10.4615V10.9268C13.6092 10.9551 11.7236 11.1611 9.86971 11.5422C9.75743 11.5649 9.65765 11.6287 9.58976 11.721C9.52187 11.8133 9.49073 11.9275 9.5024 12.0415C9.51407 12.1554 9.5677 12.261 9.65288 12.3376C9.73806 12.4142 9.84868 12.4564 9.96325 12.456H11.1436L9.62109 18.6862C9.5967 18.7857 9.60614 18.8906 9.64792 18.9841C9.68971 19.0777 9.76146 19.1548 9.85186 19.2031C10.454 19.5252 11.1265 19.6933 11.8094 19.6923C12.4923 19.6931 13.1649 19.5248 13.7669 19.2025C13.8573 19.1542 13.9291 19.0771 13.9709 18.9835C14.0127 18.8899 14.0221 18.7851 13.9977 18.6855L12.4752 12.4554H15.5017V20.6289C14.706 20.6751 13.9417 20.8394 13.2266 21.1058C13.1251 21.1436 13.0402 21.2158 12.9865 21.3098C12.9329 21.4039 12.914 21.5138 12.9332 21.6204C12.9524 21.7269 13.0085 21.8233 13.0916 21.8927C13.1747 21.9621 13.2796 22.0001 13.3879 22H18.5386C18.6469 22.0001 18.7518 21.9621 18.8349 21.8927C18.918 21.8233 18.974 21.7269 18.9933 21.6204C19.0125 21.5138 18.9936 21.4039 18.94 21.3098C18.8863 21.2158 18.8014 21.1436 18.6999 21.1058C17.9842 20.8394 17.2205 20.6751 16.4248 20.6283V12.456H19.4512L17.9288 18.6862C17.9044 18.7857 17.9138 18.8906 17.9556 18.9841C17.9974 19.0777 18.0692 19.1548 18.1596 19.2031C18.7617 19.5252 19.4342 19.6933 20.1171 19.6923C20.8 19.6933 21.4725 19.5252 22.0746 19.2031C22.165 19.1548 22.2368 19.0777 22.2786 18.9841C22.3204 18.8906 22.3298 18.7857 22.3054 18.6862L20.7829 12.456H21.9632C22.0778 12.4564 22.1884 12.4142 22.2736 12.3376C22.3588 12.261 22.4124 12.1554 22.4241 12.0415C22.4358 11.9275 22.4046 11.8133 22.3367 11.721C22.2688 11.6287 22.1691 11.5649 22.0568 11.5422C20.2029 11.1611 18.3172 10.9551 16.4248 10.9268V10.4615C16.4248 10.3391 16.3762 10.2217 16.2896 10.1352ZM20.1171 13.6191L18.9651 18.3342H21.2691L20.1171 13.6191ZM11.8094 13.6191L12.9614 18.3342H10.6574L11.8094 13.6191Z" fill="url(#paint0_linear_1907_4629)"/>
    </g>
    <defs>
        <filter id="filter0_i_1907_4629" x="3" y="3" width="26.75" height="26.75" filterUnits="userSpaceOnUse" color-interpolation-filters="sRGB">
            <feFlood flood-opacity="0" result="BackgroundImageFix"/>
            <feBlend mode="normal" in="SourceGraphic" in2="BackgroundImageFix" result="shape"/>
            <feColorMatrix in="SourceAlpha" type="matrix" values="0 0 0 0 0 0 0 0 0 0 0 0 0 0 0 0 0 0 127 0" result="hardAlpha"/>
            <feOffset dx="0.75" dy="0.75"/>
            <feGaussianBlur stdDeviation="1.5"/>
            <feComposite in2="hardAlpha" operator="arithmetic" k2="-1" k3="1"/>
            <feColorMatrix type="matrix" values="0 0 0 0 1 0 0 0 0 1 0 0 0 0 1 0 0 0 0.04 0"/>
            <feBlend mode="normal" in2="shape" result="effect1_innerShadow_1907_4629"/>
        </filter>
        <linearGradient id="paint0_linear_1907_4629" x1="16.001" y1="-2.6875" x2="16.001" y2="30.625" gradientUnits="userSpaceOnUse">
            <stop stop-color="white"/>
            <stop offset="0.667934" stop-color="#1CCA00"/>
        </linearGradient>
    </defs>
</svg>
