<svg width="16" height="16" viewBox="0 0 16 16" fill="none" xmlns="http://www.w3.org/2000/svg">
<path fill-rule="evenodd" clip-rule="evenodd" d="M3.75001 1.00003C3.05934 1.00003 2.50001 1.56003 2.50001 2.25003V13.75C2.50001 14.44 3.06001 15 3.75001 15H12.25C12.94 15 13.5 14.44 13.5 13.75V8.50003C13.5 7.83699 13.2366 7.2011 12.7678 6.73226C12.2989 6.26342 11.6631 6.00003 11 6.00003H9.75001C9.41849 6.00003 9.10055 5.86833 8.86613 5.63391C8.63171 5.39949 8.50001 5.08155 8.50001 4.75003V3.50003C8.50001 2.83699 8.23662 2.2011 7.76778 1.73226C7.29894 1.26342 6.66305 1.00003 6.00001 1.00003H3.75001ZM5.00001 10C5.00001 9.86742 5.05269 9.74025 5.14646 9.64648C5.24023 9.55271 5.3674 9.50003 5.50001 9.50003H10.5C10.6326 9.50003 10.7598 9.55271 10.8536 9.64648C10.9473 9.74025 11 9.86742 11 10C11 10.1326 10.9473 10.2598 10.8536 10.3536C10.7598 10.4474 10.6326 10.5 10.5 10.5H5.50001C5.3674 10.5 5.24023 10.4474 5.14646 10.3536C5.05269 10.2598 5.00001 10.1326 5.00001 10ZM5.50001 11.5C5.3674 11.5 5.24023 11.5527 5.14646 11.6465C5.05269 11.7402 5.00001 11.8674 5.00001 12C5.00001 12.1326 5.05269 12.2598 5.14646 12.3536C5.24023 12.4474 5.3674 12.5 5.50001 12.5H8.00001C8.13262 12.5 8.2598 12.4474 8.35356 12.3536C8.44733 12.2598 8.50001 12.1326 8.50001 12C8.50001 11.8674 8.44733 11.7402 8.35356 11.6465C8.2598 11.5527 8.13262 11.5 8.00001 11.5H5.50001Z" fill="#979797"/>
<path d="M8.64734 1.21069C9.19835 1.846 9.50118 2.65906 9.50001 3.50003V4.75003C9.50001 4.88803 9.61201 5.00003 9.75001 5.00003H11C11.841 4.99886 12.654 5.30168 13.2893 5.85269C12.996 4.73717 12.4117 3.71956 11.5961 2.90395C10.7805 2.08834 9.76287 1.504 8.64734 1.21069Z" fill="#979797"/>
</svg>
