<svg width="44" height="44" viewBox="0 0 32 32" fill="none"
    xmlns="http://www.w3.org/2000/svg">
    <rect x="2" y="2" width="28" height="28" rx="14" stroke="white" stroke-opacity="0.15" stroke-width="2"/>
    <g filter="url(#filter0_i_1908_4680)">
        <path fill-rule="evenodd" clip-rule="evenodd" d="M3 16C3 8.82 8.82 3 16 3C23.18 3 29 8.82 29 16C29 23.18 23.18 29 16 29C8.82 29 3 23.18 3 16ZM11.6464 15.8536C11.7402 15.9473 11.8674 16 12 16C12.1326 16 12.2598 15.9473 12.3536 15.8536C12.4473 15.7598 12.5 15.6326 12.5 15.5V10.5C12.5 10.3674 12.4473 10.2402 12.3536 10.1464C12.2598 10.0527 12.1326 10 12 10C11.8674 10 11.7402 10.0527 11.6464 10.1464C11.5527 10.2402 11.5 10.3674 11.5 10.5V15.5C11.5 15.6326 11.5527 15.7598 11.6464 15.8536ZM19.6464 15.8536C19.7402 15.9473 19.8674 16 20 16C20.1326 16 20.2598 15.9473 20.3536 15.8536C20.4473 15.7598 20.5 15.6326 20.5 15.5V10.5C20.5 10.3674 20.4473 10.2402 20.3536 10.1464C20.2598 10.0527 20.1326 10 20 10C19.8674 10 19.7402 10.0527 19.6464 10.1464C19.5527 10.2402 19.5 10.3674 19.5 10.5V15.5C19.5 15.6326 19.5527 15.7598 19.6464 15.8536ZM12.5 20.5V21.5C12.5 21.6326 12.4473 21.7598 12.3536 21.8536C12.2598 21.9473 12.1326 22 12 22C11.8674 22 11.7402 21.9473 11.6464 21.8536C11.5527 21.7598 11.5 21.6326 11.5 21.5V20.5C11.5 20.3674 11.5527 20.2402 11.6464 20.1464C11.7402 20.0527 11.8674 20 12 20C12.1326 20 12.2598 20.0527 12.3536 20.1464C12.4473 20.2402 12.5 20.3674 12.5 20.5ZM20.5 21.5V20.5C20.5 20.3674 20.4473 20.2402 20.3536 20.1464C20.2598 20.0527 20.1326 20 20 20C19.8674 20 19.7402 20.0527 19.6464 20.1464C19.5527 20.2402 19.5 20.3674 19.5 20.5V21.5C19.5 21.6326 19.5527 21.7598 19.6464 21.8536C19.7402 21.9473 19.8674 22 20 22C20.1326 22 20.2598 21.9473 20.3536 21.8536C20.4473 21.7598 20.5 21.6326 20.5 21.5ZM16.5 10.5V11.5C16.5 11.6326 16.4473 11.7598 16.3536 11.8536C16.2598 11.9473 16.1326 12 16 12C15.8674 12 15.7402 11.9473 15.6464 11.8536C15.5527 11.7598 15.5 11.6326 15.5 11.5V10.5C15.5 10.3674 15.5527 10.2402 15.6464 10.1464C15.7402 10.0527 15.8674 10 16 10C16.1326 10 16.2598 10.0527 16.3536 10.1464C16.4473 10.2402 16.5 10.3674 16.5 10.5ZM15.6464 21.8536C15.7402 21.9473 15.8674 22 16 22C16.1326 22 16.2598 21.9473 16.3536 21.8536C16.4473 21.7598 16.5 21.6326 16.5 21.5V16.5C16.5 16.3674 16.4473 16.2402 16.3536 16.1464C16.2598 16.0527 16.1326 16 16 16C15.8674 16 15.7402 16.0527 15.6464 16.1464C15.5527 16.2402 15.5 16.3674 15.5 16.5V21.5C15.5 21.6326 15.5527 21.7598 15.6464 21.8536ZM10.9393 19.0607C10.658 18.7794 10.5 18.3978 10.5 18C10.5 17.6022 10.658 17.2206 10.9393 16.9393C11.2206 16.658 11.6022 16.5 12 16.5C12.3978 16.5 12.7794 16.658 13.0607 16.9393C13.342 17.2206 13.5 17.6022 13.5 18C13.5 18.3978 13.342 18.7794 13.0607 19.0607C12.7794 19.342 12.3978 19.5 12 19.5C11.6022 19.5 11.2206 19.342 10.9393 19.0607ZM14.9393 15.0607C15.2206 15.342 15.6022 15.5 16 15.5C16.3978 15.5 16.7794 15.342 17.0607 15.0607C17.342 14.7794 17.5 14.3978 17.5 14C17.5 13.6022 17.342 13.2206 17.0607 12.9393C16.7794 12.658 16.3978 12.5 16 12.5C15.6022 12.5 15.2206 12.658 14.9393 12.9393C14.658 13.2206 14.5 13.6022 14.5 14C14.5 14.3978 14.658 14.7794 14.9393 15.0607ZM18.9393 19.0607C18.658 18.7794 18.5 18.3978 18.5 18C18.5 17.6022 18.658 17.2206 18.9393 16.9393C19.2206 16.658 19.6022 16.5 20 16.5C20.3978 16.5 20.7794 16.658 21.0607 16.9393C21.342 17.2206 21.5 17.6022 21.5 18C21.5 18.3978 21.342 18.7794 21.0607 19.0607C20.7794 19.342 20.3978 19.5 20 19.5C19.6022 19.5 19.2206 19.342 18.9393 19.0607Z" fill="url(#paint0_linear_1908_4680)"/>
    </g>
    <defs>
        <filter id="filter0_i_1908_4680" x="3" y="3" width="26.75" height="26.75" filterUnits="userSpaceOnUse" color-interpolation-filters="sRGB">
            <feFlood flood-opacity="0" result="BackgroundImageFix"/>
            <feBlend mode="normal" in="SourceGraphic" in2="BackgroundImageFix" result="shape"/>
            <feColorMatrix in="SourceAlpha" type="matrix" values="0 0 0 0 0 0 0 0 0 0 0 0 0 0 0 0 0 0 127 0" result="hardAlpha"/>
            <feOffset dx="0.75" dy="0.75"/>
            <feGaussianBlur stdDeviation="1.5"/>
            <feComposite in2="hardAlpha" operator="arithmetic" k2="-1" k3="1"/>
            <feColorMatrix type="matrix" values="0 0 0 0 1 0 0 0 0 1 0 0 0 0 1 0 0 0 0.04 0"/>
            <feBlend mode="normal" in2="shape" result="effect1_innerShadow_1908_4680"/>
        </filter>
        <linearGradient id="paint0_linear_1908_4680" x1="16.001" y1="-2.6875" x2="16.001" y2="30.625" gradientUnits="userSpaceOnUse">
            <stop stop-color="white"/>
            <stop offset="0.667934" stop-color="#FFD708"/>
        </linearGradient>
    </defs>
</svg>
