<svg width="44" height="44" viewBox="0 0 32 33" fill="none"
    xmlns="http://www.w3.org/2000/svg">
    <rect x="2" y="2.66406" width="28" height="28" rx="14" stroke="white" stroke-opacity="0.15" stroke-width="2"/>
    <g filter="url(#filter0_i_1929_6753)">
        <path fill-rule="evenodd" clip-rule="evenodd" d="M3 16.6641C3 9.48406 8.82 3.66406 16 3.66406C23.18 3.66406 29 9.48406 29 16.6641C29 23.8441 23.18 29.6641 16 29.6641C8.82 29.6641 3 23.8441 3 16.6641ZM18.8172 12.1891C17.9517 12.1244 17.0775 12.0909 16.1954 12.0909C15.3132 12.0909 14.439 12.1237 13.5736 12.1891C13.0067 12.2305 12.4737 12.4745 12.0718 12.8764C11.6699 13.2783 11.4259 13.8113 11.3845 14.3782C11.3729 14.536 11.3619 14.6938 11.3525 14.8516C11.3492 14.9239 11.3315 14.9948 11.3005 15.0601C11.2695 15.1255 11.2259 15.184 11.172 15.2324C11.1182 15.2807 11.0553 15.3178 10.987 15.3416C10.9187 15.3654 10.8464 15.3754 10.7742 15.3709C10.702 15.3665 10.6314 15.3478 10.5665 15.3158C10.5016 15.2838 10.4437 15.2392 10.3962 15.1847C10.3487 15.1301 10.3126 15.0667 10.2898 14.998C10.2671 14.9294 10.2582 14.8569 10.2638 14.7847C10.2732 14.6211 10.2849 14.4589 10.2972 14.296C10.3584 13.4692 10.7146 12.6918 11.3009 12.1055C11.8872 11.5192 12.6645 11.163 13.4914 11.1019C15.2915 10.966 17.0992 10.966 18.8993 11.1019C19.7262 11.163 20.5036 11.5192 21.0898 12.1055C21.6761 12.6918 22.0323 13.4692 22.0935 14.296C22.1284 14.7636 22.1553 15.2335 22.172 15.7062L23.4462 14.4327C23.5496 14.3364 23.6864 14.2839 23.8277 14.2864C23.969 14.2889 24.1038 14.3462 24.2038 14.4461C24.3037 14.546 24.3609 14.6809 24.3634 14.8222C24.3659 14.9635 24.3135 15.1002 24.2171 15.2036L22.0353 17.3854C21.933 17.4876 21.7944 17.545 21.6499 17.545C21.5053 17.545 21.3667 17.4876 21.2644 17.3854L19.0826 15.2036C19.029 15.1537 18.986 15.0935 18.9562 15.0266C18.9264 14.9597 18.9104 14.8874 18.9091 14.8142C18.9078 14.741 18.9213 14.6682 18.9487 14.6003C18.9761 14.5324 19.017 14.4707 19.0688 14.4189C19.1206 14.3671 19.1823 14.3263 19.2502 14.2988C19.3181 14.2714 19.3908 14.2579 19.4641 14.2592C19.5373 14.2605 19.6095 14.2765 19.6765 14.3064C19.7434 14.3362 19.8036 14.3791 19.8535 14.4327L21.079 15.6575C21.0622 15.2291 21.0382 14.8022 21.0062 14.3782C20.9648 13.8113 20.7209 13.2783 20.319 12.8764C19.9171 12.4745 19.384 12.2305 18.8172 12.1891ZM10.7409 16.455C10.8854 16.455 11.024 16.5124 11.1263 16.6145L13.3081 18.7963C13.4045 18.8997 13.4569 19.0365 13.4544 19.1778C13.4519 19.3191 13.3947 19.4539 13.2947 19.5539C13.1948 19.6538 13.06 19.7111 12.9187 19.7136C12.7774 19.716 12.6406 19.6636 12.5372 19.5672L11.3118 18.3425C11.3281 18.7694 11.3524 19.1959 11.3845 19.6218C11.4259 20.1886 11.6699 20.7217 12.0718 21.1236C12.4737 21.5255 13.0067 21.7694 13.5736 21.8109C15.319 21.9424 17.0718 21.9424 18.8172 21.8109C19.384 21.7694 19.9171 21.5255 20.319 21.1236C20.7209 20.7217 20.9648 20.1886 21.0062 19.6218C21.0179 19.464 21.0288 19.3062 21.0382 19.1483C21.0492 19.0055 21.1159 18.8728 21.2239 18.7787C21.3319 18.6847 21.4726 18.6369 21.6155 18.6457C21.7585 18.6545 21.8922 18.7191 21.9879 18.8257C22.0836 18.9323 22.1336 19.0722 22.127 19.2152C22.1168 19.3789 22.1059 19.5418 22.0935 19.704C22.0323 20.5308 21.6761 21.3082 21.0898 21.8945C20.5036 22.4808 19.7262 22.8369 18.8993 22.8981C17.0992 23.034 15.2915 23.034 13.4914 22.8981C12.6645 22.8369 11.8872 22.4808 11.3009 21.8945C10.7146 21.3082 10.3584 20.5308 10.2972 19.704C10.2623 19.2363 10.2354 18.7665 10.2187 18.2938L8.94451 19.5672C8.89457 19.6208 8.83435 19.6638 8.76745 19.6936C8.70054 19.7234 8.62831 19.7395 8.55507 19.7408C8.48183 19.7421 8.40909 19.7286 8.34117 19.7012C8.27325 19.6737 8.21155 19.6329 8.15976 19.5811C8.10796 19.5293 8.06713 19.4676 8.0397 19.3997C8.01227 19.3318 7.99879 19.259 8.00008 19.1858C8.00138 19.1125 8.01741 19.0403 8.04722 18.9734C8.07703 18.9065 8.12001 18.8463 8.1736 18.7963L10.3554 16.6145C10.4577 16.5124 10.5963 16.455 10.7409 16.455Z" fill="url(#paint0_linear_1929_6753)"/>
    </g>
    <defs>
        <filter id="filter0_i_1929_6753" x="3" y="3.66406" width="26.75" height="26.75" filterUnits="userSpaceOnUse" color-interpolation-filters="sRGB">
            <feFlood flood-opacity="0" result="BackgroundImageFix"/>
            <feBlend mode="normal" in="SourceGraphic" in2="BackgroundImageFix" result="shape"/>
            <feColorMatrix in="SourceAlpha" type="matrix" values="0 0 0 0 0 0 0 0 0 0 0 0 0 0 0 0 0 0 127 0" result="hardAlpha"/>
            <feOffset dx="0.75" dy="0.75"/>
            <feGaussianBlur stdDeviation="1.5"/>
            <feComposite in2="hardAlpha" operator="arithmetic" k2="-1" k3="1"/>
            <feColorMatrix type="matrix" values="0 0 0 0 1 0 0 0 0 1 0 0 0 0 1 0 0 0 0.04 0"/>
            <feBlend mode="normal" in2="shape" result="effect1_innerShadow_1929_6753"/>
        </filter>
        <linearGradient id="paint0_linear_1929_6753" x1="16.001" y1="-2.02344" x2="16.001" y2="31.2891" gradientUnits="userSpaceOnUse">
            <stop stop-color="white"/>
            <stop offset="0.667934" stop-color="#CC00FF"/>
        </linearGradient>
    </defs>
</svg>
