<svg width="44" height="44" viewBox="0 0 32 32" fill="none"
    xmlns="http://www.w3.org/2000/svg">
    <rect x="2" y="2" width="28" height="28" rx="14" stroke="white" stroke-opacity="0.15" stroke-width="2"/>
    <g filter="url(#filter0_i_1922_6147)">
        <path fill-rule="evenodd" clip-rule="evenodd" d="M3 16C3 8.82 8.82 3 16 3C23.18 3 29 8.82 29 16C29 23.18 23.18 29 16 29C8.82 29 3 23.18 3 16ZM14.2111 10C14.0294 10 13.8502 10.0423 13.6877 10.1236V10.1243L10.6463 11.6446C10.2502 11.8424 10 12.2479 10 12.6909V20.4798C9.99998 20.6793 10.0509 20.8754 10.1481 21.0496C10.2452 21.2238 10.3852 21.3702 10.5549 21.4751C10.7245 21.5799 10.9182 21.6396 11.1174 21.6485C11.3166 21.6575 11.5148 21.6153 11.6932 21.5261L14.1063 20.3189C14.1388 20.3026 14.1747 20.2941 14.2111 20.2941C14.2475 20.2941 14.2834 20.3026 14.3159 20.3189L17.4315 21.8767C17.5938 21.9578 17.7728 22 17.9543 22C18.1358 22 18.3148 21.9578 18.4771 21.8767L21.5185 20.3563C21.9152 20.1585 22.1654 19.753 22.1654 19.3101V11.5211C22.1654 11.3218 22.1144 11.1257 22.0173 10.9516C21.9202 10.7775 21.7803 10.6311 21.6107 10.5263C21.4411 10.4215 21.2476 10.3617 21.0485 10.3527C20.8493 10.3437 20.6512 10.3858 20.4729 10.4749L18.0591 11.6821C17.993 11.7145 17.9156 11.7145 17.8495 11.6821L14.7345 10.1236C14.572 10.0423 14.3928 10 14.2111 10ZM14.542 12.3943C14.4542 12.3066 14.3352 12.2573 14.2111 12.2573C14.087 12.2573 13.968 12.3066 13.8802 12.3943C13.7925 12.4821 13.7432 12.6011 13.7432 12.7252V17.8721C13.7432 17.9962 13.7925 18.1152 13.8802 18.2029C13.968 18.2907 14.087 18.34 14.2111 18.34C14.3352 18.34 14.4542 18.2907 14.542 18.2029C14.6297 18.1152 14.679 17.9962 14.679 17.8721V12.7252C14.679 12.6011 14.6297 12.4821 14.542 12.3943ZM18.2852 13.798C18.3729 13.8858 18.4222 14.0048 18.4222 14.1289V19.2758C18.4222 19.3999 18.3729 19.5189 18.2852 19.6066C18.1974 19.6944 18.0784 19.7437 17.9543 19.7437C17.8302 19.7437 17.7112 19.6944 17.6234 19.6066C17.5357 19.5189 17.4864 19.3999 17.4864 19.2758V14.1289C17.4864 14.0048 17.5357 13.8858 17.6234 13.798C17.7112 13.7103 17.8302 13.661 17.9543 13.661C18.0784 13.661 18.1974 13.7103 18.2852 13.798Z" fill="url(#paint0_linear_1922_6147)"/>
    </g>
    <defs>
        <filter id="filter0_i_1922_6147" x="3" y="3" width="26.75" height="26.75" filterUnits="userSpaceOnUse" color-interpolation-filters="sRGB">
            <feFlood flood-opacity="0" result="BackgroundImageFix"/>
            <feBlend mode="normal" in="SourceGraphic" in2="BackgroundImageFix" result="shape"/>
            <feColorMatrix in="SourceAlpha" type="matrix" values="0 0 0 0 0 0 0 0 0 0 0 0 0 0 0 0 0 0 127 0" result="hardAlpha"/>
            <feOffset dx="0.75" dy="0.75"/>
            <feGaussianBlur stdDeviation="1.5"/>
            <feComposite in2="hardAlpha" operator="arithmetic" k2="-1" k3="1"/>
            <feColorMatrix type="matrix" values="0 0 0 0 1 0 0 0 0 1 0 0 0 0 1 0 0 0 0.04 0"/>
            <feBlend mode="normal" in2="shape" result="effect1_innerShadow_1922_6147"/>
        </filter>
        <linearGradient id="paint0_linear_1922_6147" x1="16.001" y1="-2.6875" x2="16.001" y2="30.625" gradientUnits="userSpaceOnUse">
            <stop stop-color="white"/>
            <stop offset="0.667934" stop-color="#FF006B"/>
        </linearGradient>
    </defs>
</svg>
