<svg width="16" height="16" viewBox="0 0 16 16" fill="none" xmlns="http://www.w3.org/2000/svg">
<path fill-rule="evenodd" clip-rule="evenodd" d="M3.58965 2.01318C2.71311 2.01318 2 2.72552 2 3.60109C2 4.47705 2.71311 5.18966 3.58965 5.18966C4.4655 5.18966 5.17802 4.47702 5.17802 3.60109C5.17806 2.72552 4.4655 2.01318 3.58965 2.01318ZM4.7933 5.8605H2.38428C2.27736 5.8605 2.19073 5.94718 2.19073 6.05405V13.7932C2.19073 13.9001 2.27736 13.9867 2.38428 13.9867H4.7933C4.90021 13.9867 4.98684 13.9001 4.98684 13.7932V6.05405C4.98684 5.94718 4.90021 5.8605 4.7933 5.8605ZM8.8042 6.55669C9.23802 6.08409 9.95325 5.66815 10.9208 5.66815C13.6342 5.66815 14 7.62953 14 9.54818V13.7932C14 13.9001 13.9134 13.9868 13.8065 13.9868H11.4018C11.2949 13.9868 11.2083 13.9001 11.2083 13.7932V10.0305C11.2083 8.97698 11.1304 8.17112 10.1508 8.17112C9.25137 8.17112 8.90089 8.6738 8.90089 9.96411V13.7932C8.90089 13.9001 8.81426 13.9867 8.70735 13.9867H6.30359C6.19668 13.9867 6.11004 13.9001 6.11004 13.7932V6.05405C6.11004 5.94717 6.19668 5.8605 6.30359 5.8605H8.61065C8.71756 5.8605 8.8042 5.94717 8.8042 6.05405V6.55669Z" fill="#979797"/>
</svg>
