<svg width="44" height="44" viewBox="0 0 32 32" fill="none"
    xmlns="http://www.w3.org/2000/svg">
    <rect x="2" y="2" width="28" height="28" rx="14" stroke="white" stroke-opacity="0.15" stroke-width="2"/>
    <g filter="url(#filter0_i_1916_5099)">
        <path fill-rule="evenodd" clip-rule="evenodd" d="M3 16C3 8.82 8.82 3 16 3C23.18 3 29 8.82 29 16C29 23.18 23.18 29 16 29C8.82 29 3 23.18 3 16ZM14.5456 11.7071C14.6731 11.875 14.7834 12.0654 14.7834 12.276C14.7836 12.3268 14.7736 12.3771 14.7539 12.424C14.7343 12.4709 14.7055 12.5133 14.6691 12.5488C14.6328 12.5844 14.5897 12.6122 14.5424 12.6308C14.4951 12.6493 14.4445 12.6582 14.3937 12.6568C13.5787 12.6331 12.772 12.5744 11.9753 12.4824C11.9087 12.4748 11.8413 12.4824 11.778 12.5045C11.7147 12.5266 11.6573 12.5628 11.6099 12.6102C11.5626 12.6577 11.5266 12.7152 11.5046 12.7786C11.4826 12.8419 11.4753 12.9094 11.483 12.9759C11.5926 13.9253 11.6539 14.8795 11.6669 15.835C11.6675 15.8866 11.6577 15.9378 11.6383 15.9856C11.6189 16.0334 11.5902 16.0769 11.5538 16.1135C11.5174 16.1501 11.4741 16.1791 11.4264 16.1988C11.3787 16.2185 11.3276 16.2285 11.276 16.2283C11.0654 16.2283 10.875 16.118 10.7071 15.9904C10.5351 15.8594 10.3311 15.7834 10.1122 15.7834C9.49826 15.7834 9 16.3807 9 17.1181C9 17.8554 9.49767 18.4527 10.1122 18.4527C10.3311 18.4527 10.5351 18.3768 10.7071 18.2457C10.875 18.1181 11.0654 18.0078 11.276 18.0078C11.3193 18.0076 11.3622 18.0164 11.4019 18.0335C11.4417 18.0507 11.4775 18.0759 11.5071 18.1075C11.5366 18.1391 11.5593 18.1765 11.5738 18.2174C11.5882 18.2582 11.5941 18.3015 11.591 18.3447C11.5168 19.3336 11.3917 20.3081 11.2179 21.2655C11.2071 21.325 11.2085 21.3861 11.2222 21.4451C11.2358 21.504 11.2613 21.5595 11.2971 21.6083C11.3329 21.657 11.3783 21.6979 11.4304 21.7286C11.4826 21.7592 11.5404 21.7788 11.6005 21.7863C12.5274 21.9022 13.4593 21.9735 14.3931 21.9999C14.444 22.0012 14.4946 21.9923 14.542 21.9738C14.5894 21.9552 14.6325 21.9273 14.6689 21.8917C14.7053 21.8561 14.7342 21.8136 14.7539 21.7667C14.7736 21.7198 14.7836 21.6693 14.7834 21.6185C14.7834 21.4079 14.6731 21.2175 14.5456 21.0496C14.4145 20.8776 14.3385 20.6735 14.3385 20.4547C14.3385 19.8407 14.9359 19.3425 15.6732 19.3425C16.4105 19.3425 17.0078 19.8407 17.0078 20.4547C17.0078 20.6735 16.9319 20.8776 16.8008 21.0496C16.6733 21.2175 16.5629 21.4079 16.5629 21.6185C16.5628 21.6653 16.5722 21.7116 16.5906 21.7547C16.609 21.7977 16.636 21.8366 16.6699 21.8689C16.7038 21.9011 16.744 21.9261 16.7879 21.9423C16.8318 21.9585 16.8786 21.9656 16.9254 21.9631C18.0417 21.8984 19.1409 21.7703 20.2204 21.5823C20.3107 21.5665 20.3938 21.5233 20.4586 21.4586C20.5233 21.3938 20.5665 21.3107 20.5823 21.2204C20.7478 20.269 20.8656 19.3098 20.9352 18.3465C20.9489 18.1632 20.8023 18.0078 20.6185 18.0078C20.4079 18.0078 20.2175 18.1181 20.0496 18.2457C19.8776 18.3768 19.6735 18.4527 19.4547 18.4527C18.8407 18.4527 18.3425 17.8554 18.3425 17.1181C18.3425 16.3807 18.8407 15.7834 19.4547 15.7834C19.6704 15.7848 19.8796 15.8576 20.0496 15.9904C20.2175 16.118 20.4079 16.2283 20.6179 16.2283C20.6695 16.2285 20.7208 16.2185 20.7685 16.1988C20.8163 16.179 20.8596 16.15 20.8961 16.1133C20.9325 16.0767 20.9613 16.0331 20.9807 15.9853C21.0002 15.9374 21.0099 15.8861 21.0094 15.8344C20.995 14.7531 20.9206 13.6735 20.7863 12.6005C20.7788 12.5404 20.7592 12.4826 20.7286 12.4304C20.6979 12.3783 20.657 12.3329 20.6083 12.2971C20.5595 12.2613 20.504 12.2358 20.4451 12.2222C20.3861 12.2085 20.325 12.2071 20.2655 12.2179C19.1729 12.416 18.0577 12.5512 16.9248 12.6189C16.7278 12.6307 16.5629 12.4729 16.5629 12.276C16.5629 12.0654 16.6733 11.875 16.8008 11.7071C16.9319 11.5351 17.0078 11.3311 17.0078 11.1122C17.0078 10.4983 16.4105 10 15.6732 10C14.9359 10 14.3385 10.4977 14.3385 11.1122C14.34 11.3279 14.4128 11.5371 14.5456 11.7071Z" fill="url(#paint0_linear_1916_5099)"/>
    </g>
    <defs>
        <filter id="filter0_i_1916_5099" x="3" y="3" width="26.75" height="26.75" filterUnits="userSpaceOnUse" color-interpolation-filters="sRGB">
            <feFlood flood-opacity="0" result="BackgroundImageFix"/>
            <feBlend mode="normal" in="SourceGraphic" in2="BackgroundImageFix" result="shape"/>
            <feColorMatrix in="SourceAlpha" type="matrix" values="0 0 0 0 0 0 0 0 0 0 0 0 0 0 0 0 0 0 127 0" result="hardAlpha"/>
            <feOffset dx="0.75" dy="0.75"/>
            <feGaussianBlur stdDeviation="1.5"/>
            <feComposite in2="hardAlpha" operator="arithmetic" k2="-1" k3="1"/>
            <feColorMatrix type="matrix" values="0 0 0 0 1 0 0 0 0 1 0 0 0 0 1 0 0 0 0.04 0"/>
            <feBlend mode="normal" in2="shape" result="effect1_innerShadow_1916_5099"/>
        </filter>
        <linearGradient id="paint0_linear_1916_5099" x1="16.001" y1="-2.6875" x2="16.001" y2="30.625" gradientUnits="userSpaceOnUse">
            <stop stop-color="#FCFFDE"/>
            <stop offset="0.484348" stop-color="#C4CC6E"/>
        </linearGradient>
    </defs>
</svg>
